<?xml version="1.0" encoding="UTF-8" standalone="no"?>
<!-- Created with Inkscape (http://www.inkscape.org/) -->

<svg
   xmlns:dc="http://purl.org/dc/elements/1.1/"
   xmlns:cc="http://creativecommons.org/ns#"
   xmlns:rdf="http://www.w3.org/1999/02/22-rdf-syntax-ns#"
   xmlns:svg="http://www.w3.org/2000/svg"
   xmlns="http://www.w3.org/2000/svg"
   xmlns:xlink="http://www.w3.org/1999/xlink"
   xmlns:sodipodi="http://sodipodi.sourceforge.net/DTD/sodipodi-0.dtd"
   xmlns:inkscape="http://www.inkscape.org/namespaces/inkscape"
   width="963.56055"
   height="650.59778"
   viewBox="0 0 254.94205 172.13733"
   version="1.1"
   id="svg4636"
   inkscape:version="0.92.5 (2060ec1f9f, 2020-04-08)"
   sodipodi:docname="gplib_logo.svg"
   style="enable-background:new">
  <defs
     id="defs4630">
    <linearGradient
       inkscape:collect="always"
       id="linearGradient5706">
      <stop
         style="stop-color:#3c78eb;stop-opacity:1"
         offset="0"
         id="stop5702" />
      <stop
         style="stop-color:#bf1558;stop-opacity:1"
         offset="1"
         id="stop5704" />
    </linearGradient>
    <linearGradient
       inkscape:collect="always"
       id="linearGradient5650">
      <stop
         style="stop-color:#ff0089;stop-opacity:1"
         offset="0"
         id="stop5646" />
      <stop
         style="stop-color:#80017c;stop-opacity:1"
         offset="1"
         id="stop5648" />
    </linearGradient>
    <linearGradient
       inkscape:collect="always"
       id="linearGradient5642">
      <stop
         style="stop-color:#1eb7f7;stop-opacity:1"
         offset="0"
         id="stop5638" />
      <stop
         style="stop-color:#2046fa;stop-opacity:1"
         offset="1"
         id="stop5640" />
    </linearGradient>
    <linearGradient
       inkscape:collect="always"
       id="linearGradient5634">
      <stop
         style="stop-color:#00aad4;stop-opacity:1;"
         offset="0"
         id="stop5630" />
      <stop
         style="stop-color:#2340c4;stop-opacity:1"
         offset="1"
         id="stop5632" />
    </linearGradient>
    <linearGradient
       inkscape:collect="always"
       id="linearGradient5626">
      <stop
         style="stop-color:#ec0082;stop-opacity:1;"
         offset="0"
         id="stop5622" />
      <stop
         style="stop-color:#77144a;stop-opacity:1"
         offset="1"
         id="stop5624" />
    </linearGradient>
    <linearGradient
       inkscape:collect="always"
       id="linearGradient5618">
      <stop
         style="stop-color:#ec0082;stop-opacity:1;"
         offset="0"
         id="stop5614" />
      <stop
         style="stop-color:#540a32;stop-opacity:1"
         offset="1"
         id="stop5616" />
    </linearGradient>
    <linearGradient
       id="linearGradient5597"
       inkscape:collect="always">
      <stop
         id="stop5593"
         offset="0"
         style="stop-color:#ff2ab4;stop-opacity:1" />
      <stop
         id="stop5595"
         offset="1"
         style="stop-color:#1e007d;stop-opacity:1" />
    </linearGradient>
    <linearGradient
       inkscape:collect="always"
       id="linearGradient5573">
      <stop
         style="stop-color:#ff2ab4;stop-opacity:1"
         offset="0"
         id="stop5569" />
      <stop
         style="stop-color:#7d007b;stop-opacity:1"
         offset="1"
         id="stop5571" />
    </linearGradient>
    <linearGradient
       inkscape:collect="always"
       id="linearGradient5565">
      <stop
         style="stop-color:#970150;stop-opacity:1"
         offset="0"
         id="stop5561" />
      <stop
         style="stop-color:#f90089;stop-opacity:0.99607843"
         offset="1"
         id="stop5563" />
    </linearGradient>
    <linearGradient
       inkscape:collect="always"
       id="linearGradient5549">
      <stop
         style="stop-color:#1471d3;stop-opacity:0.9758454"
         offset="0"
         id="stop5545" />
      <stop
         style="stop-color:#d71461;stop-opacity:0.99215686"
         offset="1"
         id="stop5547" />
    </linearGradient>
    <linearGradient
       inkscape:collect="always"
       id="linearGradient5541">
      <stop
         style="stop-color:#4bafe0;stop-opacity:1"
         offset="0"
         id="stop5537" />
      <stop
         style="stop-color:#1e5cc5;stop-opacity:1"
         offset="1"
         id="stop5539" />
    </linearGradient>
    <linearGradient
       inkscape:collect="always"
       id="linearGradient5525">
      <stop
         style="stop-color:#3bc7e9;stop-opacity:1"
         offset="0"
         id="stop5521" />
      <stop
         style="stop-color:#0c0ba5;stop-opacity:1"
         offset="1"
         id="stop5523" />
    </linearGradient>
    <linearGradient
       inkscape:collect="always"
       xlink:href="#linearGradient5525"
       id="linearGradient5527"
       x1="339.41125"
       y1="876.95935"
       x2="84.852814"
       y2="664.82727"
       gradientUnits="userSpaceOnUse" />
    <linearGradient
       inkscape:collect="always"
       xlink:href="#linearGradient5541"
       id="linearGradient5543"
       x1="148.49242"
       y1="319.35513"
       x2="719.22858"
       y2="663.81714"
       gradientUnits="userSpaceOnUse" />
    <linearGradient
       inkscape:collect="always"
       xlink:href="#linearGradient5549"
       id="linearGradient5551"
       x1="199.00005"
       y1="634.52271"
       x2="565.68542"
       y2="309.2536"
       gradientUnits="userSpaceOnUse" />
    <linearGradient
       inkscape:collect="always"
       xlink:href="#linearGradient5565"
       id="linearGradient5567"
       x1="372.74628"
       y1="687.05066"
       x2="552.55341"
       y2="614.31964"
       gradientUnits="userSpaceOnUse"
       gradientTransform="matrix(0.24848485,-0.09088249,0.09088249,0.24848485,-40.646741,56.987904)" />
    <linearGradient
       inkscape:collect="always"
       xlink:href="#linearGradient5573"
       id="linearGradient5575"
       x1="253.54828"
       y1="627.45166"
       x2="539.42145"
       y2="429.46176"
       gradientUnits="userSpaceOnUse"
       gradientTransform="matrix(0.24848485,-0.09088249,0.09088249,0.24848485,-40.646741,56.987904)" />
    <linearGradient
       inkscape:collect="always"
       xlink:href="#linearGradient5597"
       id="linearGradient5585"
       x1="151.27455"
       y1="162.02887"
       x2="113.85682"
       y2="148.93266"
       gradientUnits="userSpaceOnUse"
       gradientTransform="rotate(-20.08982,108.78111,148.85255)" />
    <linearGradient
       inkscape:collect="always"
       xlink:href="#linearGradient5618"
       id="linearGradient5620"
       x1="270.34314"
       y1="203.26855"
       x2="260.05325"
       y2="156.87057"
       gradientUnits="userSpaceOnUse"
       gradientTransform="matrix(0.97914358,0,0,0.97914358,-68.506351,0.50417483)" />
    <linearGradient
       inkscape:collect="always"
       xlink:href="#linearGradient5626"
       id="linearGradient5628"
       x1="263.23376"
       y1="96.628021"
       x2="304.95453"
       y2="131.05234"
       gradientUnits="userSpaceOnUse"
       gradientTransform="matrix(0.97914358,0,0,0.97914358,-68.506351,0.50417483)" />
    <linearGradient
       inkscape:collect="always"
       xlink:href="#linearGradient5634"
       id="linearGradient5636"
       x1="266.69998"
       y1="149.0979"
       x2="325.17291"
       y2="128.72499"
       gradientUnits="userSpaceOnUse"
       gradientTransform="matrix(0.97914358,0,0,0.97914358,-68.506351,0.50417483)" />
    <linearGradient
       inkscape:collect="always"
       xlink:href="#linearGradient5642"
       id="linearGradient5644"
       x1="219.33958"
       y1="216.30206"
       x2="351.36667"
       y2="76.866653"
       gradientUnits="userSpaceOnUse"
       gradientTransform="matrix(4.1336681,0,0,4.1336681,-103.47125,-95.729136)" />
    <linearGradient
       inkscape:collect="always"
       xlink:href="#linearGradient5650"
       id="linearGradient5652"
       x1="235.47917"
       y1="76.072899"
       x2="349.25"
       y2="221.85832"
       gradientUnits="userSpaceOnUse"
       gradientTransform="matrix(4.1336681,0,0,4.1336681,-103.47125,-95.729136)" />
    <linearGradient
       inkscape:collect="always"
       xlink:href="#linearGradient5706"
       id="linearGradient5708"
       x1="254.25351"
       y1="87.647766"
       x2="312.0639"
       y2="207.19742"
       gradientUnits="userSpaceOnUse"
       gradientTransform="matrix(1.0952287,0,0,1.0104477,-68.66307,-2.4583289)" />
  </defs>
  <sodipodi:namedview
     id="base"
     pagecolor="#ffffff"
     bordercolor="#666666"
     borderopacity="1.0"
     inkscape:pageopacity="0.0"
     inkscape:pageshadow="2"
     inkscape:zoom="0.70710678"
     inkscape:cx="536.76812"
     inkscape:cy="315.84821"
     inkscape:document-units="px"
     inkscape:current-layer="layer1"
     showgrid="true"
     units="px"
     showguides="false"
     inkscape:snap-bbox="true"
     inkscape:bbox-paths="true"
     inkscape:bbox-nodes="true"
     inkscape:snap-bbox-edge-midpoints="true"
     inkscape:snap-bbox-midpoints="true"
     inkscape:snap-global="false"
     inkscape:window-width="1848"
     inkscape:window-height="1016"
     inkscape:window-x="72"
     inkscape:window-y="27"
     inkscape:window-maximized="1"
     inkscape:object-paths="true"
     inkscape:snap-intersection-paths="false"
     inkscape:snap-smooth-nodes="false"
     inkscape:snap-midpoints="false"
     inkscape:snap-object-midpoints="false"
     inkscape:object-nodes="false">
    <inkscape:grid
       type="xygrid"
       id="grid4638"
       originx="-35.057313"
       originy="-71.607287" />
  </sodipodi:namedview>
  <metadata
     id="metadata4633">
    <rdf:RDF>
      <cc:Work
         rdf:about="">
        <dc:format>image/svg+xml</dc:format>
        <dc:type
           rdf:resource="http://purl.org/dc/dcmitype/StillImage" />
        <dc:title />
      </cc:Work>
    </rdf:RDF>
  </metadata>
  <g
     inkscape:label="Layer 1"
     inkscape:groupmode="layer"
     id="layer1"
     transform="translate(-35.057314,-53.255362)"
     style="display:inline">
    <path
       style="display:inline;opacity:0.928;fill:#ffcc00;fill-opacity:1;stroke:none;stroke-width:1"
       d="M 989.84375,258.22266 A 230.00002,230.00002 0 0 0 921.5332,265.89258 230.00002,230.00002 0 0 0 781.875,373.05469 l 0.0234,0.0137 -154.08203,266.88086 34.64062,20 154.09766,-266.90625 -0.0195,-0.0117 16.90039,-29.27148 a 188.99134,188.99134 0 0 1 167.04106,-100.97657 188.99134,188.99134 0 0 1 68.7539,13.15039 230.00002,230.00002 0 0 0 -79.38676,-17.71093 z m 87.09965,20.86523 a 188.99134,188.99134 0 0 1 4.9824,2.4082 230.00002,230.00002 0 0 0 -4.9824,-2.4082 z m 18.0078,9.20313 a 188.99134,188.99134 0 0 1 1.0664,0.65234 l 0.043,-0.0742 a 230.00002,230.00002 0 0 0 -1.1093,-0.57812 z m -798.95901,19.9414 A 260.00002,260.00002 0 0 0 142.43359,478.31836 260.00002,260.00002 0 0 0 222.23828,745.99609 260.00002,260.00002 0 0 0 486.05859,791.87891 280.00001,280.00001 0 0 0 662.48633,660 L 627.6582,639.89258 a 239.99998,239.99998 0 0 1 -146.96484,112.13672 240,240 0 0 1 -11.84766,2.59765 239.99998,239.99998 0 0 1 -11.63672,2.33203 240,240 0 0 1 -12.00781,1.39454 239.99998,239.99998 0 0 1 -12.42773,1.21875 A 240,240 0 0 1 420,760 239.99998,239.99998 0 0 1 180,520 a 239.99998,239.99998 0 0 1 2.57617,-32.58594 240,240 0 0 1 1.11914,-7.89258 219.99998,219.99998 0 0 1 112.29688,-171.28906 z"
       transform="matrix(0.26458334,0,0,0.26458334,0,11.249983)"
       id="path4542"
       inkscape:connector-curvature="0" />
    <path
       style="fill:url(#linearGradient5585);fill-opacity:1;stroke:none;stroke-width:0.22180203"
       d="m 113.08778,139.56494 a 6.7645243,6.5454008 69.91018 0 0 -6.44487,6.72462 6.7645243,6.5454008 69.91018 0 0 6.69598,6.75345 l 43.80289,0.0961 -0.2511,-13.47805 z"
       id="path4868"
       inkscape:connector-curvature="0" />
    <path
       style="display:none;fill:url(#linearGradient5527);fill-opacity:1;stroke:none;stroke-width:1"
       d="M 432.24219,140.19922 A 380.00001,380.00001 0 0 0 107.02148,304.49023 380.00001,380.00001 0 0 0 169.49023,805.73633 380.00001,380.00001 0 0 0 674.60156,802.0957 380.00001,380.00001 0 0 0 729.83789,300 l -0.17773,0.125 a 40.000003,40.000003 0 0 0 -33.90235,-18.86328 40.000003,40.000003 0 0 0 -40,40 40.000003,40.000003 0 0 0 8.85938,25.04883 l -0.22852,0.16211 A 300.00001,300.00001 0 0 1 719.10938,543.0957 300.00001,300.00001 0 0 1 396.90625,819.10938 300.00001,300.00001 0 0 1 120.89062,496.90625 300.00001,300.00001 0 0 1 443.09375,220.89062 300.00001,300.00001 0 0 1 560.13477,254.88281 l 0.0781,-0.15039 a 40.000003,40.000003 0 0 0 17.35742,4 40.000003,40.000003 0 0 0 40,-40 40.000003,40.000003 0 0 0 -20.03906,-34.60547 l 0.043,-0.082 a 380.00001,380.00001 0 0 0 -0.98828,-0.46094 40.000003,40.000003 0 0 0 -4.70703,-2.19531 380.00001,380.00001 0 0 0 -159.63672,-41.18945 z"
       id="path4640"
       inkscape:connector-curvature="0"
       transform="matrix(0.26458334,0,0,0.26458334,0,11.249983)" />
    <path
       style="display:none;fill:url(#linearGradient5543);fill-opacity:1;stroke:none;stroke-width:1"
       d="M 408.81836,140.39648 A 380.00002,380.00002 0 0 0 40,520 a 380.00002,380.00002 0 0 0 5.25,62.29297 560.00003,320.00004 39.4653 0 0 171.35547,184.75 A 560.00003,320.00004 39.4653 0 0 431.18555,899.60352 380.00002,380.00002 0 0 0 800,520 380.00002,380.00002 0 0 0 794.75,457.70703 560.00003,320.00004 39.4653 0 0 659.52148,304.63281 a 40.104609,40.104609 0 0 0 -3.68164,16.66992 40.104609,40.104609 0 0 0 7.18555,22.82618 l -1.16406,-1.01563 A 300.00002,300.00002 0 0 1 720,520 300.00002,300.00002 0 0 1 420,820 300.00002,300.00002 0 0 1 120,520 300.00002,300.00002 0 0 1 420,220 300.00002,300.00002 0 0 1 561.33398,255.51953 l -1.05859,-0.92187 a 40.104608,40.104608 0 0 0 17.36719,4.00976 40.104608,40.104608 0 0 0 20.13281,-5.48242 560.00003,320.00004 39.4653 0 0 -188.95703,-112.72852 z"
       id="path4658"
       inkscape:connector-curvature="0"
       transform="matrix(0.26458334,0,0,0.26458334,0,11.249983)" />
    <path
       style="display:inline;fill:url(#linearGradient5636);fill-opacity:1;stroke:none;stroke-width:0.15275159"
       d="m 192.19215,90.341826 a 9.165098,9.1650994 0 0 0 -9.16498,9.164987 V 206.43261 h 9.16498 a 9.1650977,9.1650994 0 0 0 9.16501,-9.16499 v -45.8255 h 24.44033 a 27.495287,30.550321 0 0 0 27.49552,-30.55015 27.495287,30.550321 0 0 0 -27.49552,-30.550144 h -24.44033 -0.30537 z m 9.16501,18.329974 h 9.16497 3.05521 12.22015 c 5.07747,0 9.165,4.08752 9.165,9.16498 v 6.11037 c 0,5.07746 -4.08753,9.16499 -9.165,9.16499 h -15.27536 c -5.07744,0 -9.16497,-4.08753 -9.16497,-9.16499 v -6.11037 z"
       id="rect4687"
       inkscape:connector-curvature="0" />
    <path
       style="display:none;fill:#009bff;fill-opacity:1;stroke:none;stroke-width:1"
       d="m 420,240 a 280.00002,280.00002 0 0 0 -19.08203,0.95508 20.026155,20.026155 0 0 0 -0.49609,-0.0254 20.026155,20.026155 0 0 0 -20.0254,20.02734 20.026155,20.026155 0 0 0 20.0254,20.02539 20.026155,20.026155 0 0 0 3.40429,-0.29101 20.026155,20.026155 0 0 0 0.002,0 A 240.00001,240.00001 0 0 1 420,280 240.00001,240.00001 0 0 1 660,520 240.00001,240.00001 0 0 1 420,760 240.00001,240.00001 0 0 1 180,520 a 240.00001,240.00001 0 0 1 3.55273,-39.53125 l -0.008,-0.002 a 20.089288,20.089288 0 0 0 0.20508,-2.69922 20.089288,20.089288 0 0 0 -20.08984,-20.08985 20.089288,20.089288 0 0 0 -19.69922,16.17188 l -0.0606,-0.01 a 280.00002,280.00002 0 0 0 -0.2168,1.84961 20.089288,20.089288 0 0 0 -0.0137,0.10938 A 280.00002,280.00002 0 0 0 140,520 280.00002,280.00002 0 0 0 420,800 280.00002,280.00002 0 0 0 700,520 280.00002,280.00002 0 0 0 420,240 Z m -27.54297,1.37695 a 280.00002,280.00002 0 0 0 -0.69922,0.0645 280.00002,280.00002 0 0 1 0.69922,-0.0645 z m -14.91015,2.21289 a 280.00002,280.00002 0 0 0 -13.86719,2.16993 280.00002,280.00002 0 0 1 13.86719,-2.16993 z m -27.55665,5.66407 a 280.00002,280.00002 0 0 0 -13.40429,3.49609 280.00002,280.00002 0 0 1 13.40429,-3.49609 z m -26.75,8.36718 a 280.00002,280.00002 0 0 0 -12.91406,4.78907 280.00002,280.00002 0 0 1 12.91406,-4.78907 z m -25.65039,10.94141 a 280.00002,280.00002 0 0 0 -12.4414,6.08984 280.00002,280.00002 0 0 1 12.4414,-6.08984 z m -24.45507,13.45703 a 280.00002,280.00002 0 0 0 -11.80079,7.31641 280.00002,280.00002 0 0 1 11.80079,-7.31641 z m -22.99805,15.82813 a 280.00002,280.00002 0 0 0 -11.04688,8.48828 280.00002,280.00002 0 0 1 11.04688,-8.48828 z m -21.25391,17.99804 a 280.00002,280.00002 0 0 0 -10.21875,9.61914 280.00002,280.00002 0 0 1 10.21875,-9.61914 z m -19.41992,20.0918 a 280.00002,280.00002 0 0 0 -9.2168,10.59961 280.00002,280.00002 0 0 1 9.2168,-10.59961 z m -17.37305,22.00781 a 280.00002,280.00002 0 0 0 -8.05468,11.38672 280.00002,280.00002 0 0 1 8.05468,-11.38672 z m -15.08203,23.63672 a 280.00002,280.00002 0 0 0 -6.83789,12.06445 280.00002,280.00002 0 0 1 6.83789,-12.06445 z m -12.53906,24.80469 a 280.00002,280.00002 0 0 0 -5.66992,12.84375 280.00002,280.00002 0 0 1 5.66992,-12.84375 z m -10.02734,25.96094 a 280.00002,280.00002 0 0 0 -4.39844,13.46289 280.00002,280.00002 0 0 1 4.39844,-13.46289 z m -7.43555,26.99804 a 280.00002,280.00002 0 0 0 -3.01953,13.78516 280.00002,280.00002 0 0 1 3.01953,-13.78516 z"
       id="path4721"
       inkscape:connector-curvature="0"
       transform="matrix(0.26458334,0,0,0.26458334,0,11.249983)" />
    <path
       style="display:none;fill:url(#linearGradient5551);fill-opacity:1;stroke:none;stroke-width:0.8708865"
       d="m 518.39062,266.99219 a 156.14438,271.29622 49.682528 0 0 -75.75195,14.14062 240,240 0 0 1 190.28906,128.32422 156.14438,271.29622 49.682528 0 0 -1.07226,-72.06445 280.0306,280.0306 0 0 0 -89.48828,-68.88477 156.14438,271.29622 49.682528 0 0 -23.97657,-1.51562 z M 181.5332,544.64844 a 156.14438,271.29622 49.682528 0 0 12.78125,102.49218 156.14438,271.29622 49.682528 0 0 50.51367,36.64844 240,240 0 0 1 -63.29492,-139.14062 z"
       id="path4735"
       inkscape:connector-curvature="0"
       transform="matrix(0.26458334,0,0,0.26458334,0,11.249983)" />
    <path
       style="display:none;fill:#bf2c91;fill-opacity:1;stroke:none;stroke-width:1.13716161"
       d="M 658.85938,498.58398 A 240,240 0 0 1 660,520 240,240 0 0 1 420,760 240,240 0 0 1 256.08008,694.89062 163.53599,243.54641 42.667765 0 0 264.76758,752.85156 280.00001,280.00001 0 0 0 420,800 a 280.00001,280.00001 0 0 0 105.51953,-20.8457 163.53599,243.54641 42.667765 0 0 2.03125,-1.39453 163.53599,243.54641 42.667765 0 0 131.3086,-279.17579 z"
       id="path4774"
       inkscape:connector-curvature="0"
       transform="matrix(0.26458334,0,0,0.26458334,0,11.249983)" />
    <path
       style="display:inline;fill:#ff0089;fill-opacity:1;stroke:none;stroke-width:0.26458335"
       d="m 90.981639,93.362714 a 58.208337,58.208337 0 0 0 -34.67252,74.660806 58.208337,58.208337 0 0 0 74.660811,34.67253 58.208337,58.208337 0 0 0 37.83373,-48.24871 l -0.0519,0.019 a 13.596664,13.148398 69.91018 0 0 -0.79483,-5.90118 13.596664,13.148398 69.91018 0 0 -17.01838,-8.25305 13.596664,13.148398 69.91018 0 0 -8.371,10.48555 31.749996,31.749996 0 0 1 -20.68583,27.04991 31.749996,31.749996 0 0 1 -40.724087,-18.91228 31.749996,31.749996 0 0 1 18.912287,-40.72408 31.749996,31.749996 0 0 1 33.05005,7.10455 l 0.0369,-0.0135 a 13.596664,13.148398 69.91018 0 0 13.90972,3.32359 13.596664,13.148398 69.91018 0 0 7.67802,-17.28623 13.596664,13.148398 69.91018 0 0 -2.54168,-4.31201 58.208337,58.208337 0 0 0 -61.221251,-13.664905 z"
       id="path4787"
       inkscape:connector-curvature="0" />
    <path
       style="display:inline;fill:url(#linearGradient5575);fill-opacity:1;stroke:none;stroke-width:0.26458335"
       d="m 86.521411,108.67804 a 58.208337,58.208337 0 0 0 -33.123528,30.86823 58.208337,58.208337 0 0 0 2.911236,28.47725 58.208337,58.208337 0 0 0 74.660811,34.67253 58.208337,58.208337 0 0 0 33.08414,-30.91875 58.208337,58.208337 0 0 0 -2.87184,-28.42674 58.208337,58.208337 0 0 0 -1.25657,-2.96623 13.596664,13.148398 69.91018 0 0 -8.98714,-0.0723 13.596664,13.148398 69.91018 0 0 -8.371,10.48555 31.750001,31.750001 0 0 1 -20.68583,27.04991 31.750001,31.750001 0 0 1 -40.724086,-18.91228 31.750001,31.750001 0 0 1 18.912286,-40.72408 31.750001,31.750001 0 0 1 33.05005,7.10455 l 0.0369,-0.0135 a 13.596664,13.148398 69.91018 0 0 13.90972,3.32359 13.596664,13.148398 69.91018 0 0 4.12727,-2.47961 58.208337,58.208337 0 0 0 -64.672408,-17.46821 z"
       id="path4808"
       inkscape:connector-curvature="0" />
    <path
       style="display:inline;fill:url(#linearGradient5567);fill-opacity:1;stroke:none;stroke-width:0.26458335"
       d="m 144.72079,145.21363 a 13.596664,13.148398 69.91018 0 0 -2.16267,5.63808 31.750001,31.750001 0 0 1 -20.67643,26.99585 31.750001,31.750001 0 0 1 -21.55704,0.0809 31.750001,31.750001 0 0 0 1.67825,7.18974 31.750001,31.750001 0 0 0 21.48905,19.69116 58.208337,58.208337 0 0 0 7.47798,-2.11327 58.208337,58.208337 0 0 0 32.54128,-29.63182 31.750001,31.750001 0 0 0 -1.87195,-9.75787 31.750001,31.750001 0 0 0 -16.91847,-18.09273 z"
       id="path4792"
       inkscape:connector-curvature="0" />
    <path
       style="display:none;fill:url(#linearGradient5652);fill-opacity:1;stroke:none;stroke-width:1.14773679"
       d="m 984.78125,151.83594 v 0.002 a 39.90788,47.942222 0 0 0 -39.90625,47.93945 39.90788,47.942222 0 0 0 39.90625,47.94336 39.90788,47.942222 0 0 0 1.41602,-0.0605 h 136.74223 a 163.65008,163.65008 0 0 1 163.6503,163.65039 163.65008,163.65008 0 0 1 -163.6503,163.65039 v 0.0527 h -47.4825 v 91.20508 108.00586 a 29.677466,29.677452 0 0 1 -29.6777,29.67773 H 921.13281 V 337.836 A 47.484003,44.387221 0 0 0 890.5293,296.36334 47.484003,44.387221 0 0 0 873.64844,293.44928 47.484003,44.387221 0 0 0 826.16602,337.836 v 466.0664 62.22266 h 0.16601 a 31.112705,31.112705 0 0 0 -0.0781,1.56641 31.112705,31.112705 0 0 0 31.11328,31.11328 31.112705,31.112705 0 0 0 0.75781,-0.0274 v 0.0918 h 282.62108 a 29.677475,29.677475 0 0 0 29.6777,-29.67578 V 803.90234 666.21875 a 259.46591,259.46591 0 0 0 211.9824,-254.9082 259.46591,259.46591 0 0 0 -259.2558,-259.45703 v -0.008 h -0.2109 -138.00198 a 39.90788,47.942222 0 0 0 -0.15625,-0.01 z m -42.94531,74.02344 a 259.46591,259.46591 0 0 0 -9.06641,9.28124 259.46591,259.46591 0 0 1 9.06641,-9.28124 z M 924.2168,244.875 a 259.46591,259.46591 0 0 0 -8.08985,10.13672 259.46591,259.46591 0 0 1 8.08985,-10.13672 z m -15.61914,20.66797 a 259.46591,259.46591 0 0 0 -7.03711,10.88867 259.46591,259.46591 0 0 1 7.03711,-10.88867 z m 13.58789,309.89062 a 259.46591,259.46591 0 0 0 8.58398,9.77149 259.46591,259.46591 0 0 1 -8.58398,-9.77149 z m 17.39648,19.23047 a 259.46591,259.46591 0 0 0 9.49024,8.8418 259.46591,259.46591 0 0 1 -9.49024,-8.8418 z m 19.21875,17.38672 a 259.46591,259.46591 0 0 0 10.35352,7.8711 259.46591,259.46591 0 0 1 -10.35352,-7.8711 z m 20.84766,15.37695 a 259.46591,259.46591 0 0 0 11.10351,6.80665 259.46591,259.46591 0 0 1 -11.10351,-6.80665 z m 22.29496,13.22657 a 259.46591,259.46591 0 0 0 11.705,5.65625 259.46591,259.46591 0 0 1 -11.705,-5.65625 z m 23.5156,10.9414 a 259.46591,259.46591 0 0 0 12.1719,4.44336 259.46591,259.46591 0 0 1 -12.1719,-4.44336 z m 24.4726,8.53125 a 259.46591,259.46591 0 0 0 12.5977,3.21485 259.46591,259.46591 0 0 1 -12.5977,-3.21485 z"
       transform="matrix(0.26458334,0,0,0.26458334,0,11.249983)"
       id="rect5447"
       inkscape:connector-curvature="0" />
    <path
       style="display:inline;fill:url(#linearGradient5620);fill-opacity:1;stroke:none;stroke-width:0.32324079"
       d="m 192.19215,151.41466 a 9.1603993,9.1248945 0 0 0 -9.14685,8.73442 h -0.0164 v 46.28353 h 9.16333 a 9.1650977,9.1650994 0 0 0 9.16445,-9.14961 v -37.13392 -8.72673 h -9.00957 a 9.1603993,9.1248945 0 0 0 -0.15431,-0.008 z"
       id="path5461"
       inkscape:connector-curvature="0" />
    <path
       style="display:none;fill:url(#linearGradient5644);fill-opacity:1;stroke:none;stroke-width:1.14773679"
       d="m 1206.3555,165.96484 a 179.64178,518.04446 40.941318 0 0 -111.666,81.69532 h 28.25 a 163.65008,163.65008 0 0 1 163.6503,163.65039 163.65008,163.65008 0 0 1 -163.6503,163.65039 v 0.0527 h -47.4825 v 91.20508 106.56641 a 179.64178,518.04446 40.941318 0 0 94.9668,-91.41797 v -15.14844 a 259.46591,259.46591 0 0 0 18.2637,-4.35352 179.64178,518.04446 40.941318 0 0 38.3633,-43.59765 A 179.64178,518.04446 40.941318 0 0 1381.457,392.32617 259.46591,259.46591 0 0 0 1206.3555,165.96484 Z M 921.13281,423.53516 A 179.64178,518.04446 40.941318 0 0 826.16602,552.10547 V 803.90234 866.125 h 0.16601 a 31.112705,31.112705 0 0 0 -0.0781,1.56641 31.112705,31.112705 0 0 0 31.11328,31.11328 31.112705,31.112705 0 0 0 0.75781,-0.0274 v 0.0918 h 31.60742 a 179.64178,518.04446 40.941318 0 0 148.41796,-94.9668 H 921.13281 Z m 1.05274,151.89843 a 259.46591,259.46591 0 0 0 8.58398,9.77149 259.46591,259.46591 0 0 1 -8.58398,-9.77149 z m 17.39648,19.23047 a 259.46591,259.46591 0 0 0 9.49024,8.8418 259.46591,259.46591 0 0 1 -9.49024,-8.8418 z m 19.21875,17.38672 a 259.46591,259.46591 0 0 0 10.35352,7.8711 259.46591,259.46591 0 0 1 -10.35352,-7.8711 z m 20.84766,15.37695 a 259.46591,259.46591 0 0 0 11.10351,6.80665 259.46591,259.46591 0 0 1 -11.10351,-6.80665 z m 22.29496,13.22657 a 259.46591,259.46591 0 0 0 11.705,5.65625 259.46591,259.46591 0 0 1 -11.705,-5.65625 z m 23.5156,10.9414 a 259.46591,259.46591 0 0 0 12.1719,4.44336 259.46591,259.46591 0 0 1 -12.1719,-4.44336 z m 24.4726,8.53125 a 259.46591,259.46591 0 0 0 12.5977,3.21485 259.46591,259.46591 0 0 1 -12.5977,-3.21485 z"
       id="path5587"
       inkscape:connector-curvature="0"
       transform="matrix(0.26458334,0,0,0.26458334,0,11.249983)" />
    <path
       style="display:inline;opacity:1;fill:url(#linearGradient5628);fill-opacity:1;stroke:none;stroke-width:0.24855068"
       d="m 192.19215,90.341826 a 9.1650983,9.1650997 0 0 0 -9.16498,9.164987 v 33.162677 a 39.368415,39.368415 0 0 0 23.27494,7.67117 39.368415,39.368415 0 0 0 39.36861,-39.36806 39.368415,39.368415 0 0 0 -0.0423,-1.191187 27.495287,30.550321 0 0 0 -19.83094,-9.439587 h -24.44033 -0.30537 z m 9.16501,18.329974 h 9.16497 3.05521 12.22015 c 5.07747,0 9.165,4.08752 9.165,9.16498 v 6.11037 c 0,5.07746 -4.08753,9.16499 -9.165,9.16499 h -15.27536 c -5.07744,0 -9.16497,-4.08753 -9.16497,-9.16499 v -6.11037 z"
       id="path5609"
       inkscape:connector-curvature="0" />
    <path
       style="display:none;opacity:0.928;fill:url(#linearGradient5708);fill-opacity:1;stroke:none;stroke-width:0.27635196"
       d="m 213.87145,81.093045 a 10.142276,9.1826216 0 0 0 -10.14228,9.18262 V 207.58364 h 0.01 a 2.897793,2.6236061 0 0 0 -0.01,0.17474 2.897793,2.6236061 0 0 0 2.89779,2.62361 2.897793,2.6236061 0 0 0 2.8978,-2.62361 2.897793,2.6236061 0 0 0 -0.007,-0.17474 h 0.007 V 96.834679 a 11.591172,10.494425 0 0 1 11.59116,-10.494424 h 40.5691 a 2.897793,2.6236061 0 0 0 2.89779,-2.623605 2.897793,2.6236061 0 0 0 -2.89779,-2.623605 z"
       id="rect5664"
       inkscape:connector-curvature="0" />
    <path
       style="display:none;opacity:0.928;fill:#3c78eb;fill-opacity:1;stroke:none;stroke-width:1.40740752"
       d="m 392.09766,141.39648 a 380.00002,380.00002 0 0 0 -18.91211,1.84375 380.00004,380.00004 0 0 1 18.91211,-1.84375 z m 79.13867,2.51172 a 380.00007,380.00007 0 0 1 18.76172,2.83594 380.00002,380.00002 0 0 0 -18.76172,-2.83594 z m -116.80078,2.16602 a 380.00002,380.00002 0 0 0 -18.6211,3.71875 380.00004,380.00004 0 0 1 18.6211,-3.71875 z m 154.08398,4.82617 a 380.00007,380.00007 0 0 1 18.41211,4.70313 380.00002,380.00002 0 0 0 -18.41211,-4.70313 z m -191.11133,3.59375 a 380.00002,380.00002 0 0 0 -18.11132,5.54688 380.00004,380.00004 0 0 1 18.11132,-5.54688 z m 227.49414,7.08008 a 380.00007,380.00007 0 0 1 17.86328,6.51953 380.00002,380.00002 0 0 0 -17.86328,-6.51953 z m -263.46289,4.98437 a 380.00002,380.00002 0 0 0 -17.50195,7.3418 380.00004,380.00004 0 0 1 17.50195,-7.3418 z m 298.64844,9.28711 a 380.00007,380.00007 0 0 1 17.10156,8.26172 380.00002,380.00002 0 0 0 -17.10156,-8.26172 z m -333.24219,6.3125 a 380.00002,380.00002 0 0 0 -16.65234,9.03516 380.00004,380.00004 0 0 1 16.65234,-9.03516 z m 366.77735,11.375 a 380.00007,380.00007 0 0 1 16.21484,9.94336 380.00002,380.00002 0 0 0 -16.21484,-9.94336 z m -399.6543,7.60742 a 380.00002,380.00002 0 0 0 -15.66992,10.65821 380.00004,380.00004 0 0 1 15.66992,-10.65821 z m 431.31055,13.37696 a 380.00007,380.00007 0 0 1 15.09375,11.47461 380.00002,380.00002 0 0 0 -15.09375,-11.47461 z m -462.08399,8.76172 a 380.00002,380.00002 0 0 0 -14.57617,12.20898 380.00004,380.00004 0 0 1 14.57617,-12.20898 z m 491.46094,15.25976 a 380.00007,380.00007 0 0 1 13.87695,12.92774 380.00002,380.00002 0 0 0 -13.87695,-12.92774 z m -519.89844,9.86133 a 380.00002,380.00002 0 0 0 -13.27539,13.5918 380.00004,380.00004 0 0 1 13.27539,-13.5918 z m 546.70313,16.94336 a 380.00007,380.00007 0 0 1 12.54687,14.2832 380.00002,380.00002 0 0 0 -12.54687,-14.2832 z m -572.50586,10.91016 a 380.00002,380.00002 0 0 0 -11.83985,14.83593 380.00004,380.00004 0 0 1 11.83985,-14.83593 z m 596.52734,18.46679 a 380.00007,380.00007 0 0 1 11.04102,15.44141 380.00002,380.00002 0 0 0 -11.04102,-15.44141 z m -619.39648,11.78907 a 380.00002,380.00002 0 0 0 -10.312502,15.96289 380.00004,380.00004 0 0 1 10.312502,-15.96289 z m 640.38086,19.86718 a 380.00007,380.00007 0 0 1 9.42578,16.4336 380.00002,380.00002 0 0 0 -9.42578,-16.4336 z M 91.320312,330.23633 A 380.00002,380.00002 0 0 0 40,520 380.00002,380.00002 0 0 0 420,900 h 510 10 40 a 30.000005,30.000005 0 0 0 30,-30 V 690 a 30.000001,30.000001 0 0 1 30,-30 h 130 v -80 h -160 -50 a 30.000006,30.000006 0 0 0 -30,30 v 180 a 30.000005,30.000005 0 0 1 -30,30 H 420 A 300.00006,300.00006 0 0 1 120,520 300.00006,300.00006 0 0 1 160.42578,370.13477 Z M 764.1543,359.91211 a 380.00007,380.00007 0 0 1 7.75195,17.32227 380.00002,380.00002 0 0 0 -7.75195,-17.32227 z m 14.27148,35.18555 a 380.00007,380.00007 0 0 1 5.9707,17.9707 380.00002,380.00002 0 0 0 -5.9707,-17.9707 z m 10.67383,36.38281 a 380.00007,380.00007 0 0 1 4.15625,18.52148 380.00002,380.00002 0 0 0 -4.15625,-18.52148 z m 6.99219,37.2832 a 380.00007,380.00007 0 0 1 2.28711,18.83594 380.00002,380.00002 0 0 0 -2.28711,-18.83594 z M 800,520 A 380.00007,380.00007 0 0 1 798.37891,552.40039 380.00002,380.00002 0 0 0 800,520 Z m -3.9082,51.23633 a 380.00007,380.00007 0 0 1 -2.83594,18.76172 380.00002,380.00002 0 0 0 2.83594,-18.76172 z m -6.99219,37.2832 a 380.00007,380.00007 0 0 1 -4.70313,18.41211 380.00002,380.00002 0 0 0 4.70313,-18.41211 z m -10.67383,36.38281 a 380.00007,380.00007 0 0 1 -6.51953,17.86328 380.00002,380.00002 0 0 0 6.51953,-17.86328 z m -14.27148,35.18555 a 380.00007,380.00007 0 0 1 -8.26172,17.10156 380.00002,380.00002 0 0 0 8.26172,-17.10156 z m -17.6875,33.53516 a 380.00007,380.00007 0 0 1 -9.94336,16.21484 380.00002,380.00002 0 0 0 9.94336,-16.21484 z m -20.98438,31.65625 a 380.00007,380.00007 0 0 1 -11.47461,15.09375 380.00002,380.00002 0 0 0 11.47461,-15.09375 z m -24.02148,29.37695 a 380.00007,380.00007 0 0 1 -12.92774,13.87695 380.00002,380.00002 0 0 0 12.92774,-13.87695 z m -26.80469,26.80469 a 380.00007,380.00007 0 0 1 -14.2832,12.54687 380.00002,380.00002 0 0 0 14.2832,-12.54687 z"
       transform="matrix(0.26458334,0,0,0.26458334,0,11.249983)"
       id="path3824"
       inkscape:connector-curvature="0" />
    <path
       style="display:none;opacity:0.928;fill:#ffff00;fill-opacity:1;stroke:none;stroke-width:1.2647438"
       d="m 1080,290 a 219.99999,219.99999 0 0 0 -155.56445,64.43555 l 28.36523,28.36523 A 179.99998,179.99998 0 0 1 1080,330 Z"
       transform="matrix(0.26458334,0,0,0.26458334,0,11.249983)"
       id="circle4523"
       inkscape:connector-curvature="0" />
    <path
       style="display:none;fill:none;stroke:#000000;stroke-width:0.26458335px;stroke-linecap:butt;stroke-linejoin:miter;stroke-opacity:1"
       d="m 226.541,89.284788 c 14.05503,-8.676235 24.25137,-9.120571 25.60776,-9.260887 1.35639,-0.140317 3.62484,-0.397563 7.10937,-0.53788 3.48453,-0.140316 9.0738,0.608036 11.15517,1.052372 2.08135,0.444336 7.85773,1.987818 7.85773,1.987818"
       id="path90"
       inkscape:connector-curvature="0" />
    <path
       style="display:inline;opacity:1;fill:#ffcc00;fill-opacity:0.92941176;stroke:none;stroke-width:0.93940413"
       d="m 850.66602,298.92969 a 230.00002,230.00002 0 0 0 -65.71094,69.27929 h 10.71875 11.54687 23.64649 l 2.56836,-4.44921 a 188.99134,188.99134 0 0 1 49.74414,-59.85743 103.91919,115.46578 0 0 0 -29.77149,-4.97265 z"
       transform="matrix(0.26458334,0,0,0.26458334,0,11.249983)"
       id="path105"
       inkscape:connector-curvature="0" />
    <g
       aria-label="Lib"
       transform="translate(-7.5814577,2.4564635)"
       style="font-style:normal;font-variant:normal;font-weight:normal;font-stretch:normal;font-size:42.33333206px;line-height:1.25;font-family:Holland;-inkscape-font-specification:'Holland, Normal';font-variant-ligatures:normal;font-variant-caps:normal;font-variant-numeric:normal;font-feature-settings:normal;text-align:start;letter-spacing:0px;word-spacing:0px;writing-mode:lr-tb;text-anchor:start;fill:#000000;fill-opacity:1;stroke:none;stroke-width:0.82656181"
       id="text96">
      <path
         d="m 235.79562,89.95164 v 0 0 q 0.11974,-0.03234 0.20495,-0.03394 0.0599,-0.01617 0.11973,-0.03234 -0.009,0.0453 0.002,0.08521 -0.004,0.06526 -0.013,0.110557 0.0108,0.03991 -0.004,0.06526 -2.08116,2.917344 -4.62013,5.487295 -0.11813,0.11755 -0.27239,0.180625 -0.0199,0.0054 -0.0652,-0.0038 -0.0453,-0.0092 -0.076,-0.0437 -0.0254,-0.01457 -0.0361,-0.05448 -0.005,-0.01996 0.009,-0.0453 0.0383,-0.09599 0.0766,-0.191983 0.11493,-0.287975 0.28054,-0.546818 1.93389,-2.749102 4.39407,-4.976601 z m 10.53422,-8.562024 v 0 0 q -0.15426,0.06307 -0.32847,0.131538 -0.65153,0.283032 -1.52258,0.625352 -0.0998,0.02695 -0.21034,0.01399 -0.0453,-0.0092 -0.11055,-0.01296 0.0237,-0.07065 0.0221,-0.155858 -0.0232,-0.165034 0.0497,-0.291761 0.24222,-0.450826 0.52975,-0.892477 0.0728,-0.126726 0.16561,-0.258843 4.85942,-7.693049 8.37174,-16.092821 1.46427,-3.4573 2.47392,-7.091569 0.36049,-1.360629 0.46913,-2.781704 0.0309,-0.75773 -0.18852,-1.490694 -0.38646,-1.351585 -1.66669,-1.969311 -1.46143,-0.654429 -2.90798,0.01462 -1.37751,0.607579 -2.58896,1.512887 -3.22388,2.412357 -5.46205,5.778924 -0.4294,0.629848 -0.74285,1.292613 -0.30806,0.68272 -0.49478,1.418314 -0.1943,0.866105 0.26615,1.619603 0.72032,1.240002 2.143,1.433851 0.91519,0.138215 1.81858,-0.08437 0.29933,-0.08085 0.61323,-0.18704 1.37693,-0.371899 2.74847,-0.763754 0.0944,-0.04691 0.18877,-0.09381 0.0545,-0.03613 0.10896,-0.07225 0.12891,-0.07764 0.14565,-0.253454 0.0367,-0.181203 -0.0609,-0.304722 -0.43568,-0.503252 -1.04512,-0.381468 -0.66393,0.157909 -1.32246,0.335774 -0.29933,0.08085 -0.61862,0.167085 -0.23946,0.06468 -0.47893,0.129356 -0.63858,0.172475 -1.28254,0.324994 -0.84352,0.206418 -1.65515,-0.024 -0.096,-0.03831 -0.1882,-0.141871 -0.0922,-0.103563 -0.0992,-0.208731 -0.0479,-0.415279 0.0546,-0.828377 0.13385,-0.614256 0.41438,-1.161074 0.2951,-0.572163 0.64628,-1.09524 1.96361,-3.035473 4.80993,-5.260212 0.94446,-0.704727 1.91047,-1.329632 1.16018,-0.698759 2.5058,-0.869499 0.80521,-0.110426 0.90107,0.720133 0.0528,0.670915 -0.005,1.328869 -0.11666,0.995015 -0.36921,1.962502 -0.69185,2.670568 -1.71696,5.217039 -1.86467,4.828708 -4.24003,9.43136 -3.40253,6.507338 -7.46404,12.635969 -0.59501,0.888691 -1.5265,1.482861 -4.35974,2.80479 -7.73974,6.779514 -0.68721,0.785127 -1.31835,1.619342 -0.60579,0.848779 -1.08485,1.770388 -0.4208,0.820227 -0.67496,1.702502 -0.14303,0.659557 0.26891,1.233455 0.41733,0.593854 1.11141,0.706146 0.16125,0.04209 0.32628,0.01893 0.17043,-0.0032 0.31929,-0.08624 0.65532,-0.348289 1.23301,-0.825486 0.88837,-0.753814 1.68454,-1.611192 2.78659,-3.000821 5.16606,-6.319905 1.3297,-1.81511 2.60333,-3.679308 0.5114,-0.801875 1.31559,-1.233193 2.84838,-1.582955 5.92211,-2.64867 4.28023,-1.434407 8.80621,-1.800392 8.56065,-0.727738 16.39468,2.830332 0.0453,0.0092 0.0906,0.01835 0.0253,0.01457 0.0706,0.02374 0.21194,0.07122 0.24326,-0.129935 -0.002,-0.08521 -0.0232,-0.165034 -0.002,-0.08521 -0.0577,-0.134298 -0.36504,-0.479511 -0.93021,-0.669443 -0.30793,-0.109531 -0.60129,-0.244408 -1.41453,-0.560042 -2.83284,-1.054827 -5.04123,-1.700212 -10.12802,-1.825095 -5.08678,-0.124883 -10.22074,1.240351 -0.87265,0.257108 -1.86882,0.611812 -0.52802,0.185437 -1.13586,0.392433 z"
         style="font-style:normal;font-variant:normal;font-weight:normal;font-stretch:normal;font-size:42.33333206px;font-family:Holland;-inkscape-font-specification:'Holland, Normal';font-variant-ligatures:normal;font-variant-caps:normal;font-variant-numeric:normal;font-feature-settings:normal;text-align:start;writing-mode:lr-tb;text-anchor:start;stroke-width:0.82656181"
         id="path88"
         inkscape:connector-curvature="0" />
      <path
         d="m 262.56468,80.2957 v 0 0 q 0.61606,0.07374 2.00998,-0.151282 1.39393,-0.225018 3.11155,-0.651262 1.74119,-0.443536 3.36921,-0.967197 1.64846,-0.520523 2.72958,-1.023642 1.1047,-0.520412 1.22877,-0.919612 0.022,-0.143016 -0.11791,-0.185419 -0.13673,-0.06283 -0.32689,-0.05022 -0.19015,0.01261 -0.33945,0.0315 -0.7653,0.217031 -1.92975,0.581871 -1.51645,0.478064 -3.43678,0.998642 -1.92034,0.520579 -3.94916,0.794446 -0.89576,0.113335 -1.82611,0.179531 -0.23101,0.0063 -0.47618,-0.03133 -0.0817,-0.01256 -0.18388,-0.02825 -0.12259,-0.01883 -0.18862,-0.133544 -0.066,-0.11471 -0.0299,-0.213725 0.35189,-0.656982 0.82797,-1.169406 0.47608,-0.512425 1.00717,-0.974571 0.0707,-0.05188 0.12099,-0.10689 1.60268,-1.447731 3.34685,-2.727334 0.61909,-0.490452 0.0469,-1.1221 -0.12732,-0.124126 -0.3112,-0.152377 -0.1603,-0.04554 -0.29544,0.01735 -0.0676,0.03145 -0.11471,0.06603 -0.24672,0.108488 -0.47614,0.240545 -2.09616,1.392828 -3.87166,3.148619 -0.52008,0.526577 -0.97099,1.147434 -0.29065,0.394519 -0.44771,0.872304 -0.1429,0.521786 -0.0171,1.063946 0.10541,0.539022 0.48109,0.952263 0.37569,0.413242 1.02948,0.513688 z m 8.17633,-9.932331 v 0 0 q 0.24357,-0.08806 0.48714,-0.176114 0.72758,-0.24374 1.48187,-0.525203 0.0644,-0.01102 0.11785,-0.08646 0.0534,-0.07545 0.0864,-0.15403 0.14765,-0.416492 -0.1526,-0.776317 -0.25624,-0.373977 -0.70726,-0.296879 -0.90831,0.19506 -1.62482,0.77511 -0.21527,0.176058 -0.22149,0.488799 -0.003,0.29231 0.18712,0.551577 0.0723,0.07385 0.19176,0.113113 0.0786,0.03299 0.15403,0.0864 z"
         style="font-style:normal;font-variant:normal;font-weight:normal;font-stretch:normal;font-size:42.33333206px;font-family:Holland;-inkscape-font-specification:'Holland, Normal';font-variant-ligatures:normal;font-variant-caps:normal;font-variant-numeric:normal;font-feature-settings:normal;text-align:start;writing-mode:lr-tb;text-anchor:start;stroke-width:0.82656181"
         id="path91"
         inkscape:connector-curvature="0" />
      <path
         d="m 282.57391,72.571357 v 0 0 q -0.0146,-0.0253 -0.0293,-0.05061 -0.0546,-0.03597 -0.0639,-0.08125 -0.009,-0.04528 -0.0239,-0.07058 0.0107,-0.03994 0.0413,-0.07455 0.0306,-0.03461 0.0559,-0.04924 0.13322,-0.178371 0.31568,-0.3008 0.67925,-0.460443 1.3838,-0.935522 2.08834,-1.410602 4.23126,-2.785232 2.26411,-1.427844 4.76639,-2.385574 1.15593,-0.482896 2.37165,-0.628898 0.0652,-0.004 0.1398,0.03734 0.0799,0.02133 0.10382,0.09191 0.0293,0.05061 0.003,0.150461 -0.0213,0.07988 -0.0773,0.129127 -0.005,0.01997 -0.0306,0.03461 -0.46887,0.473838 -1.01229,0.906371 -1.94992,1.533153 -4.1793,2.670742 -3.65435,1.826765 -7.49229,3.219389 -0.16647,0.06252 -0.34223,0.07976 -0.0906,0.01861 -0.16113,0.04255 z m -9.14909,7.74056 v 0 0 q -0.0599,-0.016 -0.15443,-0.06264 -0.24362,-0.129249 -0.57642,-0.325108 -0.14377,-0.102581 0.009,-0.275619 0.58746,-0.677514 1.41047,-1.035375 1.66065,-0.690419 3.34649,-1.074581 1.71114,-0.398799 3.47674,-0.440732 0.87213,0.01897 1.64962,0.312203 0.10915,0.07194 0.12639,0.247709 0.0426,0.161128 -0.06,0.304892 -0.0559,0.04924 -0.11188,0.09849 -0.18383,0.207645 -0.3823,0.389986 -0.92434,0.737303 -1.9844,1.181622 -1.06005,0.444319 -2.17728,0.702205 -2.46618,0.582258 -4.57239,-0.02305 z m 0.77303,1.511558 v 0 0 q 0.69897,0.186678 1.3647,0.257502 0.68036,0.09613 1.37809,0.04713 2.47536,-0.21609 4.69146,-1.464199 0.93093,-0.521595 1.65557,-1.312235 0.62206,-0.646875 0.59576,-1.509703 -0.0593,-1.620469 -1.71289,-1.997917 -1.14899,-0.264078 -2.35404,-0.158018 -0.41678,0.03845 -0.83889,0.09688 -0.3715,0.02915 -0.72304,0.06364 -0.0852,-0.0014 -0.16509,-0.0227 -0.0745,-0.04131 -0.10383,-0.09191 -0.0293,-0.05061 -0.008,-0.130491 0.0267,-0.09985 0.0773,-0.129127 0.005,-0.01997 0.21707,-0.09179 0.79634,-0.258009 3.0349,-1.029429 2.23856,-0.77142 4.55837,-1.606721 2.31981,-0.835301 3.35592,-1.350199 1.33443,-0.670571 3.23622,-1.703095 1.90712,-1.052495 3.06987,-1.961471 0.78183,-0.604207 1.37065,-1.366936 0.55284,-0.708152 0.41069,-1.537736 -0.19797,-1.101233 -1.34039,-1.149604 -0.68706,0.0091 -1.38616,0.143274 -1.80702,0.437376 -3.48504,1.272922 -2.55697,1.242652 -4.92366,2.81426 -6.15179,4.0481 -11.94559,8.598315 -3.10336,2.487404 -5.96981,5.209244 -0.51415,0.483142 -0.95375,1.007588 -0.15319,0.173038 -0.12267,0.459324 0.0105,0.280952 0.15828,0.448779 0.0546,0.03597 0.15443,0.06264 0.0799,0.02133 0.13049,-0.0079 0.33826,-0.145005 0.6073,-0.351286 0.66597,-0.570963 1.33195,-1.141926 0.61003,-0.521718 1.23469,-1.018132 0.42757,-0.399289 0.69922,-0.455109 0.26632,-0.03585 0.663,0.241256 0.47657,0.29844 0.9798,0.497027 0.50323,0.198587 1.01714,0.357233 0.02,0.0053 0.0399,0.01067 z"
         style="font-style:normal;font-variant:normal;font-weight:normal;font-stretch:normal;font-size:42.33333206px;font-family:Holland;-inkscape-font-specification:'Holland, Normal';font-variant-ligatures:normal;font-variant-caps:normal;font-variant-numeric:normal;font-feature-settings:normal;text-align:start;writing-mode:lr-tb;text-anchor:start;stroke-width:0.82656181"
         id="path93"
         inkscape:connector-curvature="0" />
    </g>
  </g>
</svg>
